<!-- Generated by IcoMoon.io -->
<svg version="1.1" xmlns="http://www.w3.org/2000/svg" width="32" height="32" viewBox="0 0 32 32">
<title>logo-large</title>
<path fill="#764692" d="M1.988 23.713s-2.628-3.381-1.8-10.284c0.386-3.213 2.185-6.556 3.856-8.099l2.128 6.548 4.498-10.926c0.686-0.286 1.484-0.508 2.316-0.628l0.054-0.006-1.733 30.916s-2.84-1.033-3.286-1.481c-0.059-0.062 1.548-18.123 1.548-18.123l-3.597 8.356-2.828-6.942z"></path>
<path fill="#7ec6cd" d="M21.532 1.274c-2.747-2.039-8.163-0.964-8.163-0.964l-1.8 30.98c2.185 0.643 4.371 0.643 4.371 0.643s0.064-13.433 0.323-13.433 3.728-0.129 5.657-1.928 2.759-3.584 2.957-7.198c0.191-3.535-1.352-6.62-3.344-8.099zM16.969 13.934l0.386-8.87c2.317 0 3.599 1.928 3.599 4.114 0 2.074-2.057 4.757-3.985 4.757z"></path>
<path fill="#764692" d="M16.197 31.932v-3.34s5.142-0.643 8.099-3.599c1.48-1.48 0.129-4.242-0.129-4.628s-2.185-3.471-2.185-3.471 3.085-1.8 3.213-7.456c0.094-4.114-1.542-7.070-3.599-8.356 0 0 4.756 1.8 7.456 5.785 2.44 3.599 2.956 7.711 2.828 8.351 0 0-3.334-3.213-4.371-3.213-0.643 0-1.028 0.386-0.9 1.414s1.542 4.373 2.571 6.43c0.257 0.514 1.157 2.185 1.157 3.213 0 0.288-2.443 4.499-6.556 6.813-2.356 1.325-5.656 2.313-7.585 2.057z"></path>
</svg>
